<mxfile host="app.diagrams.net" modified="2024-02-27T12:38:32.487Z" agent="Mozilla/5.0 (Windows NT 10.0; Win64; x64) AppleWebKit/537.36 (KHTML, like Gecko) Chrome/121.0.0.0 Safari/537.36 Edg/121.0.0.0" version="23.1.7" etag="oyGbx0K_DU7pJSaYsF9m" type="github">
  <diagram name="第 1 页" id="HcGgxKbNCUQ0AMIA_er8">
    <mxGraphModel>
      <root>
        <mxCell id="0" />
        <mxCell id="1" parent="0" />
      </root>
    </mxGraphModel>
  </diagram>
</mxfile>
